{
    "accessors": [
        {
            "bufferView": 0,
            "byteOffset": 0,
            "componentType": 5123,
            "count": 2376,
            "type": "SCALAR",
            "max": [
                2375
            ],
            "min": [
                0
            ]
        },
        {
            "bufferView": 1,
            "byteOffset": 0,
            "componentType": 5126,
            "count": 2376,
            "type": "VEC3",
            "max": [
                116.73400115966797,
                257.60400390625,
                57.064998626708984
            ],
            "min": [
                -116.73400115966797,
                -0,
                -90.22899627685547
            ],
            "name": "POSITION"
        },
        {
            "bufferView": 1,
            "byteOffset": 12,
            "componentType": 5126,
            "count": 2376,
            "type": "VEC2",
            "max": [
                0.875,
                -0.125
            ],
            "min": [
                0.125,
                -0.875
            ],
            "name": "TEXCOORD_0"
        },
        {
            "bufferView": 1,
            "byteOffset": 20,
            "componentType": 5126,
            "count": 2376,
            "type": "VEC3",
            "max": [
                1.0000044107437134,
                1.0000044107437134,
                1.0000044107437134
            ],
            "min": [
                -1.0000044107437134,
                -1.0000044107437134,
                -1.0000044107437134
            ],
            "name": "NORMAL"
        },
        {
            "bufferView": 0,
            "byteOffset": 4752,
            "componentType": 5123,
            "count": 2376,
            "type": "SCALAR",
            "max": [
                2375
            ],
            "min": [
                0
            ]
        },
        {
            "bufferView": 2,
            "byteOffset": 0,
            "componentType": 5126,
            "count": 2376,
            "type": "VEC3",
            "max": [
                116.73400115966797,
                257.60400390625,
                57.064998626708984
            ],
            "min": [
                -116.73400115966797,
                -0,
                -90.22899627685547
            ],
            "name": "POSITION"
        },
        {
            "bufferView": 2,
            "byteOffset": 12,
            "componentType": 5126,
            "count": 2376,
            "type": "VEC2",
            "max": [
                0.875,
                -0.125
            ],
            "min": [
                0.125,
                -0.875
            ],
            "name": "TEXCOORD_0"
        },
        {
            "bufferView": 2,
            "byteOffset": 20,
            "componentType": 5126,
            "count": 2376,
            "type": "VEC3",
            "max": [
                1.0000044107437134,
                1.0000044107437134,
                1.0000044107437134
            ],
            "min": [
                -1.0000044107437134,
                -1.0000044107437134,
                -1.0000044107437134
            ],
            "name": "NORMAL"
        },
        {
            "bufferView": 0,
            "byteOffset": 9504,
            "componentType": 5123,
            "count": 150,
            "type": "SCALAR",
            "max": [
                99
            ],
            "min": [
                0
            ]
        },
        {
            "bufferView": 3,
            "byteOffset": 0,
            "componentType": 5126,
            "count": 100,
            "type": "VEC3",
            "max": [
                49.67499923706055,
                199.5260009765625,
                56.058998107910156
            ],
            "min": [
                -49.67499923706055,
                100.4209976196289,
                56.058998107910156
            ],
            "name": "POSITION"
        },
        {
            "bufferView": 3,
            "byteOffset": 12,
            "componentType": 5126,
            "count": 100,
            "type": "VEC2",
            "max": [
                1,
                -0
            ],
            "min": [
                0,
                -1
            ],
            "name": "TEXCOORD_0"
        },
        {
            "bufferView": 3,
            "byteOffset": 20,
            "componentType": 5126,
            "count": 100,
            "type": "VEC3",
            "max": [
                0,
                0,
                1.0000044107437134
            ],
            "min": [
                0,
                0,
                1.0000044107437134
            ],
            "name": "NORMAL"
        }
    ],
    "asset": {
        "generator": "Aspose.3D 21.5",
        "version": "2.0"
    },
    "buffers": [
        {
            "uri": "data:application/octet-stream;base64,",
            "byteLength": 166684
        }
    ],
    "bufferViews": [
        {
            "buffer": 0,
            "byteOffset": 0,
            "byteLength": 9804,
            "target": 34963
        },
        {
            "buffer": 0,
            "byteOffset": 9808,
            "byteLength": 76032,
            "byteStride": 32,
            "target": 34962
        },
        {
            "buffer": 0,
            "byteOffset": 85844,
            "byteLength": 76032,
            "byteStride": 32,
            "target": 34962
        },
        {
            "buffer": 0,
            "byteOffset": 161880,
            "byteLength": 4800,
            "byteStride": 32,
            "target": 34962
        }
    ],
    "meshes": [
        {
            "primitives": [
                {
                    "material": 0,
                    "attributes": {
                        "POSITION": 1,
                        "TEXCOORD_0": 2,
                        "NORMAL": 3
                    },
                    "indices": 0,
                    "mode": 4
                }
            ]
        },
        {
            "primitives": [
                {
                    "attributes": {
                        "POSITION": 5,
                        "TEXCOORD_0": 6,
                        "NORMAL": 7
                    },
                    "indices": 4,
                    "mode": 4
                }
            ]
        },
        {
            "primitives": [
                {
                    "attributes": {
                        "POSITION": 9,
                        "TEXCOORD_0": 10,
                        "NORMAL": 11
                    },
                    "indices": 8,
                    "mode": 4
                }
            ]
        }
    ],
    "nodes": [
        {
            "mesh": 0,
            "name": "052_-_Meowth"
        },
        {
            "mesh": 1,
            "name": "052_-_Meowth_-_Shiny"
        },
        {
            "mesh": 2,
            "name": "image"
        }
    ],
    "textures": [
        {
            "source": 0
        }
    ],
    "materials": [
        {
            "pbrMetallicRoughness": {
                "baseColorTexture": {
                    "index": 0
                },
                "metallicFactor": 0.0
            },
            "emissiveFactor": [
                0.0,
                0.0,
                0.0
            ]
        }
    ],
    "images": [
        {
            "uri": "052_-_Meowth_1.jpg"
        }
    ],
    "scene": 0,
    "scenes": [
        {
            "nodes": [
                0,
                1,
                2
            ]
        }
    ]
}